<svg width="310" height="311" viewBox="0 0 310 311" fill="none" xmlns="http://www.w3.org/2000/svg">
<g filter="url(#filter0_d_2_317)">
<mask id="mask0_2_317" style="mask-type:luminance" maskUnits="userSpaceOnUse" x="0" y="0" width="310" height="311">
<path d="M168.564 -2.14915e-06L0 137.451L141.436 310.902L310 173.451L168.564 -2.14915e-06Z" fill="white"/>
</mask>
<g mask="url(#mask0_2_317)">
<path d="M207.476 47.7186L238.411 85.6559C238.989 86.9646 239.527 88.3053 240.049 89.6258C240.049 89.6539 240.06 89.6811 240.079 89.7022C240.095 89.7224 240.095 89.7224 240.092 89.7586C246.265 105.762 248.65 122.896 247.054 139.777C245.458 156.659 239.925 172.816 230.902 186.942C229.364 189.338 227.741 191.669 225.996 193.932C225.979 193.963 225.958 193.991 225.934 194.016C221.017 200.417 215.381 206.218 209.132 211.309L208.289 211.997C217.719 203.029 224.615 191.697 228.311 179.1C232.007 166.503 232.376 153.067 229.382 140.096L229.366 140.076C226.859 129.159 222.034 118.856 215.224 109.883C208.414 100.91 199.784 93.4816 189.933 88.1149C187.807 86.3891 185.62 84.7475 183.388 83.2101C182.462 82.5548 181.48 81.9113 180.515 81.2879C179.931 80.8914 179.327 80.5109 178.739 80.1505C178.03 79.7212 177.324 79.2558 176.576 78.8586C176.074 78.5629 175.555 78.247 175.017 77.9472C174.046 77.3961 173.038 76.8409 172.031 76.2857C170.899 75.6978 169.786 75.0938 168.631 74.558C168.001 74.2658 167.407 73.9777 166.758 73.7014C166.184 73.3974 165.534 73.1211 164.921 72.849C164.307 72.5769 163.641 72.2805 162.972 72.0202C162.027 71.5818 161.057 71.2317 160.105 70.8656C158.803 70.3492 157.478 69.885 156.173 69.4047C156.098 69.4325 156.081 69.4123 156.012 69.3678C154.651 68.8994 153.271 68.4469 151.9 68.0869C150.536 67.6546 149.133 67.2543 147.723 66.9262C146.353 66.5662 144.946 66.2021 143.514 65.9262C143.415 65.9288 143.317 65.9047 143.229 65.8565C141.924 65.5772 140.636 65.318 139.305 65.127C137.889 64.8713 136.506 64.6559 135.064 64.4884C133.645 64.2689 132.239 64.1056 130.775 63.9903C129.457 63.8556 128.101 63.7529 126.722 63.7023L126.506 63.6772C125.798 63.6498 125.074 63.6022 124.383 63.5949C123.639 63.5634 122.912 63.5519 122.201 63.5607C120.802 63.526 119.344 63.5394 117.92 63.593C117.173 63.5976 116.426 63.6022 115.692 63.663C114.959 63.7239 114.209 63.7646 113.479 63.7894C113.167 63.808 112.873 63.8468 112.562 63.8655C111.242 63.9678 109.883 64.1022 108.54 64.2567C106.978 64.4222 105.43 64.6441 103.878 64.9021C103.269 64.9957 102.68 65.0733 102.084 65.2233C101.475 65.3169 100.919 65.4348 100.306 65.5645C99.7239 65.6526 99.1479 65.7747 98.5814 65.9302C97.2654 66.1974 95.9268 66.5166 94.6045 66.8561C94.215 66.9387 93.8059 67.0373 93.4132 67.156C92.4641 67.3927 91.5447 67.7059 90.5923 67.9787C90.4042 68.0137 90.2218 68.0721 90.0491 68.153C89.3782 68.3307 88.7238 68.5286 88.0661 68.7626C87.4477 68.9647 86.8293 69.1667 86.1881 69.4209L86.1324 69.4327L86.0964 69.4286C85.478 69.6306 84.8564 69.8688 84.2152 70.123C83.1453 70.4918 82.1052 70.937 81.0682 71.3461L122.17 37.8304C128.256 32.8517 135.292 29.1576 142.877 26.9596C150.461 24.7616 158.444 24.1031 166.368 25.0217C174.293 25.9403 182.003 28.418 189.056 32.3127C196.11 36.2074 202.37 41.4427 207.476 47.7186Z" fill="url(#paint0_linear_2_317)"/>
<path d="M238.411 85.6563L271.072 125.711C276.197 131.975 280.07 139.161 282.469 146.855C284.868 154.551 285.746 162.604 285.052 170.553C284.359 178.503 282.107 186.193 278.427 193.182C274.747 200.171 269.71 206.322 263.606 211.282L214.135 251.622C212.616 251.92 211.08 252.199 209.532 252.42L209.512 252.436C209.476 252.432 209.476 252.432 209.457 252.448C182.287 256.513 154.308 249.933 131.247 234.054C126.89 231.055 122.755 227.737 118.877 224.127L118.844 224.086C117.008 222.394 115.197 220.614 113.464 218.769C127.187 228.084 143.396 232.811 159.711 232.254C176.026 231.696 191.587 225.886 204.108 215.675C205.578 214.476 206.976 213.269 208.289 211.997L209.132 211.31C215.38 206.219 221.016 200.417 225.934 194.016C225.958 193.991 225.979 193.963 225.996 193.932C227.74 191.67 229.364 189.338 230.902 186.943C239.924 172.816 245.457 156.659 247.053 139.778C248.65 122.896 246.265 105.762 240.091 89.7587C240.095 89.7225 240.095 89.7227 240.078 89.7026C240.059 89.6814 240.049 89.6541 240.049 89.6261C239.527 88.3056 238.984 86.9682 238.411 85.6563Z" fill="url(#paint1_linear_2_317)"/>
<g filter="url(#filter1_f_2_317)">
<path d="M214.135 251.623L187.831 273.071C175.526 283.104 159.624 287.696 143.623 285.838C127.623 283.98 112.833 275.824 102.509 263.163L68.9915 222.059C68.0816 219.342 67.2665 216.582 66.5792 213.818L66.5855 213.746C66.207 212.241 65.8646 210.741 65.5778 209.228C65.3847 208.311 65.2113 207.378 65.0182 206.461C64.7371 204.676 64.4528 202.926 64.2437 201.149C64.0283 199.444 63.8294 197.76 63.6893 196.027C63.5491 194.294 63.4811 192.57 63.4131 190.846C63.3451 189.122 63.3492 187.406 63.3697 185.71C63.3902 184.014 63.4499 182.287 63.5653 180.547C63.6806 178.808 63.8093 177.125 64.0132 175.414C64.3818 172.024 64.9141 168.635 65.6072 165.283C66.2774 161.983 67.1248 158.74 68.0967 155.529C68.1222 155.445 68.1538 155.364 68.1909 155.285C68.6768 153.68 69.2349 152.083 69.7733 150.502C69.8206 150.428 69.8526 150.345 69.8675 150.257L70.7151 148.055C71.4621 146.17 72.2421 144.325 73.0942 142.489C73.481 141.602 73.9203 140.74 74.3432 139.858C74.8736 138.788 75.4235 137.701 75.9867 136.671C76.5272 135.693 77.0873 134.699 77.6474 133.705L77.6701 133.653C78.0317 133.056 78.3965 132.423 78.7581 131.826C79.2859 130.993 79.8365 130.107 80.4005 129.278C80.7615 128.658 81.1543 128.057 81.5769 127.479C82.5581 126.041 83.5753 124.607 84.6418 123.234C84.6184 123.384 84.5873 123.533 84.5483 123.679C77.6138 140.114 76.7102 158.639 81.9953 176.019C87.2803 193.4 98.4185 208.531 113.464 218.77C115.197 220.614 117.008 222.395 118.844 224.087L118.877 224.127C122.755 227.738 126.89 231.056 131.247 234.054C154.306 249.929 182.28 256.508 209.446 252.444C209.465 252.428 209.465 252.428 209.502 252.432L209.521 252.416C211.08 252.199 212.612 251.924 214.135 251.623Z" fill="url(#paint2_linear_2_317)"/>
</g>
<path d="M189.692 87.9416C187.652 86.2805 185.534 84.6834 183.387 83.2107C182.684 82.7092 181.909 82.1992 181.168 81.7296C180.859 81.5112 180.636 81.3575 180.514 81.2886C179.93 80.8921 179.326 80.5115 178.738 80.1511C178.029 79.7219 177.323 79.2565 176.575 78.8592C176.073 78.5635 175.554 78.2477 175.016 77.9478C174.045 77.3968 173.037 76.8416 172.03 76.2863C170.898 75.6984 169.766 75.1105 168.63 74.5587C168.001 74.2664 167.407 73.9784 166.757 73.7021C166.163 73.414 165.533 73.1218 164.92 72.8497C164.306 72.5776 163.64 72.2811 162.971 72.0208C162.026 71.5825 161.056 71.2324 160.105 70.8663C158.802 70.3499 157.477 69.8856 156.172 69.4054C156.097 69.4331 156.08 69.413 156.011 69.3685C154.631 68.916 153.267 68.4837 151.899 68.0875C150.532 67.6914 149.129 67.2911 147.722 66.9269C146.316 66.5627 144.942 66.2389 143.513 65.9268C143.414 65.9292 143.316 65.9052 143.228 65.8572C141.904 65.5938 140.615 65.3347 139.304 65.1277C137.869 64.8879 136.486 64.6725 135.064 64.4891C133.641 64.3057 132.239 64.1063 130.774 63.9909C129.457 63.8562 128.1 63.7535 126.721 63.7029L126.505 63.6778C125.797 63.6504 125.073 63.6028 124.382 63.5955L122.2 63.5613C120.801 63.5266 119.344 63.5399 117.919 63.5936C117.188 63.6183 116.438 63.6591 115.692 63.6637C114.945 63.6682 114.208 63.7653 113.478 63.79C113.167 63.8086 112.872 63.8474 112.561 63.866C111.241 63.9684 109.882 64.1028 108.54 64.2573C106.978 64.4228 105.429 64.6447 103.877 64.9027C103.268 64.9963 102.679 65.0739 102.083 65.2238C101.474 65.3174 100.918 65.4354 100.306 65.5651C99.7231 65.6531 99.1471 65.7752 98.5805 65.9308C97.2646 66.198 95.9455 66.5013 94.6037 66.8567C94.2142 66.9393 93.8051 67.0379 93.4124 67.1566C92.4436 67.4093 91.5109 67.6661 90.5915 67.9793C90.4033 68.0143 90.2209 68.0727 90.0483 68.1536C89.3774 68.3313 88.7229 68.5292 88.0653 68.7632C87.4469 68.9653 86.8284 69.1673 86.1873 69.4215L86.1316 69.4333L86.0956 69.4291C85.4772 69.6312 84.8556 69.8694 84.2144 70.1236C83.1445 70.4924 82.1043 70.9376 81.0673 71.3467L46.3746 99.636C40.2835 104.601 35.2585 110.752 31.5868 117.738C27.9151 124.724 25.6685 132.408 24.9755 140.351C24.2824 148.294 25.1565 156.341 27.5477 164.031C29.9388 171.721 33.8001 178.904 38.9115 185.17L68.9914 222.059C68.0681 219.286 67.2562 216.489 66.572 213.689C65.7486 210.398 65.1086 207.092 64.5963 203.783C64.4526 202.926 64.3481 202.037 64.2435 201.149C64.0282 199.444 63.8292 197.759 63.6891 196.027C63.549 194.294 63.4418 192.602 63.4129 190.846C63.3417 189.158 63.3098 187.438 63.3695 185.71C63.4292 183.982 63.4333 182.266 63.5651 180.547C63.6413 178.84 63.7927 177.104 64.013 175.414C64.374 172.007 64.906 168.626 65.607 165.282C66.2723 162.004 67.1076 158.767 68.1098 155.586C68.1265 155.482 68.1536 155.382 68.1907 155.285C68.6539 153.732 69.15 152.219 69.7017 150.694C71.4703 145.872 73.5703 141.186 75.9866 136.671C76.527 135.693 77.0871 134.699 77.6472 133.705L77.67 133.653C78.0315 133.056 78.3963 132.423 78.7579 131.826C78.831 131.737 78.8944 131.64 78.9469 131.537C79.416 130.752 79.9179 130.007 80.4003 129.278C80.7613 128.657 81.1542 128.057 81.5768 127.479C82.5579 126.041 83.5751 124.607 84.6417 123.233C84.593 123.374 84.5968 123.539 84.5482 123.679C84.6651 123.382 84.7953 123.142 84.8926 122.861L84.9514 122.813C89.6295 112.026 96.7972 102.569 105.876 95.2071C120.667 83.1166 139.635 77.265 158.936 78.8375C159.044 78.85 159.136 78.8424 159.204 78.8869C165.184 79.3807 171.105 80.5832 176.843 82.469L176.879 82.4732C177.869 82.8073 178.86 83.1414 179.847 83.5117C183.307 84.8033 186.678 86.3421 189.932 88.1155C189.848 88.0631 189.768 88.005 189.692 87.9416Z" fill="url(#paint3_linear_2_317)"/>
<g style="mix-blend-mode:multiply" opacity="0.08">
<path d="M208.972 49.5544L238.411 85.6565C247.839 107.343 250.081 131.329 244.8 153.995C239.518 176.662 226.999 196.778 209.132 211.31L208.289 211.997C217.718 203.029 224.615 191.698 228.311 179.1C232.006 166.503 232.376 153.068 229.382 140.097C229.385 140.061 229.366 140.076 229.366 140.076C229.825 115.827 224.729 85.7656 208.972 49.5544Z" fill="#040404"/>
</g>
<g style="mix-blend-mode:multiply" opacity="0.08">
<path d="M236.969 233.002L214.135 251.622C196.202 255.183 177.531 254.033 159.907 248.281C142.282 242.53 126.293 232.369 113.464 218.769C124.645 226.365 137.53 230.933 150.832 232.019C179.151 240.135 208.909 240.474 236.969 233.002Z" fill="#040404"/>
</g>
<g style="mix-blend-mode:multiply" opacity="0.08">
<path d="M84.6418 123.234C84.6184 123.384 84.5873 123.533 84.5483 123.679C81.0421 132.021 79.0536 140.965 78.6753 150.093C75.3356 171.05 74.3915 201.068 83.0365 239.283L68.9915 222.059C67.5735 217.855 66.4331 213.569 65.5778 209.228C65.3847 208.311 65.2113 207.378 65.0182 206.461C64.7371 204.676 64.4528 202.926 64.2437 201.149C64.0283 199.444 63.8294 197.76 63.6893 196.027C63.5491 194.294 63.4811 192.57 63.4131 190.846C63.3451 189.122 63.3492 187.406 63.3697 185.71C63.3902 184.014 63.4499 182.287 63.5653 180.547C63.6806 178.808 63.8093 177.125 64.0132 175.414C64.3818 172.024 64.9141 168.635 65.6072 165.283C66.2774 161.983 67.1248 158.74 68.0967 155.529C68.1222 155.445 68.1538 155.364 68.1909 155.285C68.6768 153.68 69.2349 152.083 69.7733 150.502C69.8206 150.428 69.8526 150.345 69.8675 150.257L70.7151 148.055C71.4621 146.17 72.2421 144.325 73.0942 142.489C73.481 141.602 73.9203 140.74 74.3432 139.858C74.8736 138.788 75.4235 137.701 75.9867 136.671C76.8755 135.04 77.8003 133.413 78.7581 131.826C79.2859 130.993 79.8365 130.107 80.4005 129.278C80.7615 128.658 81.1543 128.057 81.5769 127.479C82.5542 126.044 83.5753 124.607 84.6418 123.234Z" fill="#040404"/>
</g>
<g style="mix-blend-mode:multiply" opacity="0.08">
<path d="M189.932 88.1157C186.678 86.3423 183.307 84.8035 179.847 83.5119C178.902 83.0407 177.905 82.6916 176.879 82.4734L176.843 82.4692C171.105 80.5833 165.184 79.3809 159.204 78.8871C159.135 78.8426 159.044 78.8502 158.935 78.8376C134.749 75.3899 96.7924 76.8248 46.394 99.6202L81.0671 71.3468C82.1041 70.9378 83.1443 70.4925 84.2142 70.1238C84.8554 69.8696 85.477 69.6314 86.0954 69.4293C86.115 69.4133 86.1675 69.4377 86.1871 69.4217C86.8282 69.1675 87.4467 68.9654 88.0651 68.7634C88.7227 68.5293 89.3772 68.3314 90.0481 68.1537C90.2207 68.0729 90.4031 68.0144 90.5913 67.9795C91.5107 67.6663 92.4434 67.4094 93.4122 67.1567C93.8049 67.038 94.214 66.9394 94.6035 66.8568C95.9453 66.5014 97.2644 66.1981 98.5803 65.931C99.1469 65.7754 99.7229 65.6533 100.305 65.5653C100.918 65.4355 101.474 65.3176 102.083 65.224C102.679 65.0741 103.268 64.9964 103.877 64.9028C105.429 64.6448 106.977 64.423 108.539 64.2574C109.882 64.1029 111.241 63.9686 112.561 63.8662C112.872 63.8476 113.166 63.8088 113.478 63.7901C114.208 63.7654 114.941 63.7045 115.691 63.6638C116.441 63.6231 117.188 63.6185 117.919 63.5938C119.343 63.5401 120.801 63.5268 122.2 63.5614L124.382 63.5957C125.073 63.6029 125.797 63.6505 126.505 63.6779L126.721 63.703C128.1 63.7537 129.456 63.8563 130.774 63.9911C132.238 64.1064 133.644 64.2697 135.063 64.4893C136.482 64.7088 137.869 64.8881 139.304 65.1278C140.615 65.3348 141.903 65.594 143.228 65.8573C143.316 65.9054 143.414 65.9294 143.513 65.927C144.942 66.239 146.332 66.583 147.722 66.927C149.112 67.271 150.516 67.6714 151.899 68.0877C153.283 68.504 154.631 68.9161 156.011 69.3686C156.08 69.4131 156.097 69.4333 156.172 69.4055C157.477 69.8858 158.802 70.35 160.104 70.8664C161.056 71.2325 162.026 71.5826 162.971 72.021C163.64 72.2813 164.27 72.5735 164.92 72.8498C165.569 73.1261 166.163 73.4142 166.757 73.7022C167.406 73.9785 168 74.2666 168.63 74.5588C169.765 75.1106 170.898 75.6986 172.03 76.2865C173.037 76.8417 174.045 77.3969 175.016 77.948C175.554 78.2478 176.073 78.5637 176.575 78.8594C177.323 79.2566 178.029 79.7221 178.738 80.1513C179.326 80.5117 179.93 80.8922 180.514 81.2887C180.635 81.3576 180.859 81.5114 181.167 81.7298C181.647 82.0776 182.366 82.5993 183.17 83.1857C185.515 84.9005 188.664 87.2016 189.692 87.9418C189.768 88.0052 189.848 88.0633 189.932 88.1157Z" fill="#040404"/>
</g>
<g style="mix-blend-mode:multiply" opacity="0.25">
<path d="M209.511 252.437C209.475 252.433 209.475 252.433 209.455 252.449C182.285 256.514 154.307 249.934 131.245 234.055C126.889 231.056 122.754 227.738 118.876 224.128C119.135 224.286 120.35 225.175 122.343 226.539C124.556 228.092 127.774 230.237 131.683 232.59C133.695 233.737 135.805 235.004 138.102 236.22C139.248 236.865 140.452 237.461 141.692 238.061C142.932 238.662 144.133 239.294 145.429 239.883C147.998 241.113 150.707 242.194 153.453 243.28C156.198 244.365 159.061 245.355 161.917 246.216C164.767 247.15 167.665 247.943 170.537 248.623C173.409 249.304 176.251 249.908 179.033 250.359C181.816 250.81 184.474 251.228 187.053 251.509C189.632 251.79 191.997 252.01 194.317 252.134C196.637 252.257 198.629 252.379 200.519 252.416C202.409 252.452 203.975 252.452 205.321 252.462C207.807 252.437 209.33 252.416 209.511 252.437Z" fill="#040404"/>
</g>
<g style="mix-blend-mode:multiply" opacity="0.25">
<path d="M240.091 89.76C246.264 105.763 248.649 122.897 247.053 139.779C245.456 156.661 239.924 172.817 230.901 186.944C229.363 189.34 227.739 191.671 225.995 193.933C226.154 193.568 226.935 192.125 228.205 189.881C228.882 188.59 229.968 187 230.778 185.231C231.652 183.343 232.854 181.255 233.819 178.956C234.32 177.809 234.843 176.61 235.406 175.379C235.899 174.104 236.396 172.792 236.932 171.449C237.502 170.087 238 168.694 238.425 167.276C238.878 165.832 239.441 164.4 239.865 162.879C240.289 161.358 240.732 159.821 241.159 158.264C241.586 156.706 241.872 155.096 242.267 153.499C242.661 151.901 242.95 150.255 243.24 148.609C243.529 146.963 243.854 145.32 243.983 143.637C244.184 141.963 244.473 140.316 244.618 138.653C244.763 136.99 244.856 135.303 244.981 133.656C245.016 130.337 245.264 127.079 245.086 123.9C245.088 120.741 244.774 117.674 244.61 114.752C244.444 113.308 244.26 111.881 244.104 110.53C243.997 109.201 243.821 107.876 243.577 106.561C243.142 104.028 242.801 101.687 242.342 99.6437C241.883 97.6002 241.588 95.7585 241.151 94.3018C240.543 91.8758 240.194 90.2468 240.091 89.76Z" fill="#040404"/>
</g>
<g style="mix-blend-mode:multiply" opacity="0.25">
<path d="M77.647 133.705L75.5561 139.306C74.8121 141.155 74.2095 143.056 73.5541 144.934C72.8987 146.812 72.3318 148.718 71.7321 150.583L71.5052 151.306L71.3403 151.944L70.9389 153.413L70.5574 154.866L70.3664 155.592L70.2825 155.929C70.2857 155.893 70.2887 155.857 70.2722 155.837L70.2242 156.178L68.6334 163.352L68.2235 165.13L68.0938 165.572L68.0618 165.732L68.042 165.748L68.0584 165.768L68.0555 165.804L68.0296 165.893L67.9043 166.7L67.3861 170.346C67.2068 171.567 67.047 172.772 66.8152 173.968L66.5295 175.779L66.3484 177.438L66.0198 180.997C65.9682 182.214 65.8609 183.443 65.7733 184.656L65.7109 185.58L65.6951 185.761L65.692 185.797L65.6724 185.813L65.6856 185.87L65.6629 185.922L65.6776 186.38L65.6248 188.236L65.5752 190.056L65.5387 190.892L65.5319 191.804L65.5182 195.509L65.6416 199.102L65.6806 200.951L65.7783 202.752C65.7558 203.844 65.9667 205.184 66.0624 206.382C66.2868 208.818 66.4719 211.286 66.585 213.746C66.2065 212.241 65.8641 210.741 65.5773 209.228C65.3843 208.311 65.2108 207.378 65.0178 206.461C64.7366 204.676 64.4523 202.926 64.2433 201.149C64.0279 199.444 63.8289 197.76 63.6888 196.027C63.5487 194.294 63.4806 192.57 63.4126 190.846C63.3446 189.122 63.3487 187.406 63.3692 185.71C63.3897 184.014 63.4495 182.287 63.5648 180.547C63.6802 178.808 63.8088 177.125 64.0128 175.414C64.3814 172.024 64.9138 168.635 65.6068 165.283C66.2771 161.983 67.1244 158.74 68.0963 155.529C68.1217 155.446 68.1532 155.364 68.1903 155.285C68.6765 153.68 69.2343 152.083 69.7728 150.502C69.82 150.428 69.8522 150.345 69.8671 150.257L70.7147 148.055C71.4618 146.17 72.2418 144.325 73.0938 142.489C73.4806 141.602 73.92 140.74 74.3428 139.858C74.8732 138.788 75.4231 137.701 75.9864 136.671C76.5268 135.693 77.0869 134.699 77.647 133.705Z" fill="#040404"/>
</g>
<g style="mix-blend-mode:multiply" opacity="0.25">
<path d="M175.017 77.9475C173.38 77.3009 171.815 76.6628 170.175 76.0524L168.959 75.6007C168.519 75.4218 168.221 75.2958 167.778 75.1531L165.341 74.2859L162.937 73.459L160.458 72.6598L156.008 71.2849L155.936 71.2765C155.796 71.2601 155.659 71.2259 155.527 71.1742C155.512 71.1604 155.494 71.1521 155.474 71.1498L155.458 71.1297L152.392 70.372C151.858 70.2369 151.379 70.09 150.842 69.9911L149.271 69.6261L147.685 69.241L147.006 69.0892L146.203 68.9046L143.305 68.3125L143.233 68.3041C143.162 68.2864 143.089 68.2779 143.017 68.279C142.897 68.2592 142.777 68.2331 142.66 68.201C141.365 68.0141 140.077 67.755 138.838 67.5563L134.791 66.995L130.632 66.5449L126.618 66.2249L126.51 66.2123L126.493 66.1922L126.474 66.2082C125.478 66.1473 124.482 66.0863 123.446 66.0574L121.972 66.0506L120.446 66.0194L117.393 65.9569L115.863 65.9619L114.386 65.9912C113.855 66.0209 113.436 66.027 112.886 66.0726L111.441 66.1423L109.905 66.2195L109.139 66.2401C109.047 66.2477 108.844 66.2789 108.828 66.2587L108.441 66.3052L105.379 66.5521L102.442 66.8318L102.367 66.8596C101.43 66.9517 100.494 67.0438 99.5149 67.204L96.5845 67.6123L93.6706 68.0408L90.7669 68.5617L90.6751 68.5693L90.2496 68.6477L90.1939 68.6595C88.8976 68.9107 87.5127 69.1333 86.1772 69.4164C86.8184 69.1622 87.4368 68.9601 88.0553 68.7581C88.7129 68.524 89.3673 68.3261 90.0382 68.1484C90.2109 68.0676 90.3933 68.0091 90.5815 67.9742C91.5009 67.661 92.4336 67.4041 93.4023 67.1514C93.795 67.0327 94.2041 66.9341 94.5936 66.8515C95.9355 66.4961 97.2546 66.1929 98.5705 65.9257C99.1371 65.7701 99.713 65.648 100.296 65.56C100.908 65.4302 101.464 65.3123 102.073 65.2187C102.669 65.0688 103.258 64.9911 103.867 64.8975C105.419 64.6395 106.968 64.4177 108.529 64.2521C109.872 64.0976 111.231 63.9633 112.551 63.8609C112.862 63.8423 113.157 63.8035 113.468 63.7848C114.198 63.7601 114.932 63.6992 115.682 63.6585C116.432 63.6178 117.178 63.6132 117.909 63.5885C119.334 63.5348 120.791 63.5215 122.19 63.5561L124.372 63.5904C125.063 63.5976 125.787 63.6452 126.495 63.6726L126.711 63.6977C128.09 63.7484 129.447 63.8511 130.764 63.9858C132.228 64.1011 133.634 64.2643 135.053 64.4839C136.473 64.7035 137.859 64.8827 139.294 65.1225C140.605 65.3295 141.893 65.5886 143.218 65.852C143.306 65.9002 143.404 65.9242 143.503 65.9216C144.932 66.2336 146.322 66.5777 147.712 66.9217C149.102 67.2657 150.506 67.666 151.889 68.0823C153.273 68.4987 154.621 68.9108 156.001 69.3633C156.07 69.4078 156.087 69.4279 156.162 69.4002C157.467 69.8804 158.792 70.3447 160.094 70.8611C161.046 71.2272 162.016 71.5773 162.961 72.0156C163.63 72.2759 164.26 72.5682 164.91 72.8445C165.559 73.1207 166.153 73.4088 166.747 73.6969C167.397 73.9732 167.99 74.2612 168.62 74.5535C169.756 75.1053 170.888 75.6932 172.02 76.2812C173.038 76.8412 174.045 77.3965 175.017 77.9475Z" fill="#040404"/>
</g>
<g style="mix-blend-mode:screen" opacity="0.4">
<path d="M209.445 252.444C209.127 252.535 207.707 252.955 205.442 253.458C204.123 253.762 202.545 254.108 200.682 254.385C198.819 254.661 196.685 254.925 194.415 255.063C191.929 255.283 189.43 255.371 186.928 255.325C184.124 255.302 181.319 255.135 178.524 254.824C175.529 254.532 172.549 254.07 169.596 253.44C166.574 252.816 163.528 252.042 160.531 251.128C157.521 250.157 154.556 249.083 151.712 247.876C150.281 247.312 148.878 246.674 147.51 245.964C146.128 245.31 144.786 244.625 143.5 243.928C140.991 242.59 138.554 241.112 136.203 239.502C133.928 238.033 131.918 236.448 130.059 235.009C127.081 232.654 124.28 230.076 121.684 227.299C120.017 225.535 119.063 224.365 118.866 224.123C122.743 227.733 126.878 231.052 131.235 234.05C154.296 249.929 182.275 256.51 209.445 252.444Z" fill="white"/>
</g>
<g style="mix-blend-mode:screen" opacity="0.4">
<path d="M240.091 89.76C240.295 90.1307 241.037 91.6411 242.142 93.997C242.822 95.3905 243.47 97.1454 244.223 99.1501C245.082 101.396 245.825 103.683 246.448 106C247.245 108.539 247.746 111.354 248.398 114.315C249.519 120.829 250.029 127.417 249.922 133.993C249.807 135.732 249.727 137.476 249.612 139.215C249.497 140.955 249.25 142.734 249.063 144.465C248.875 146.196 248.505 147.942 248.173 149.656C247.841 151.371 247.546 153.089 247.073 154.751C246.279 158.037 245.297 161.27 244.135 164.434C243.059 167.379 241.823 170.259 240.433 173.06C239.733 174.403 239.144 175.722 238.474 176.941C237.731 178.151 237.047 179.313 236.366 180.439C235.17 182.451 233.871 184.397 232.471 186.268C231.405 187.741 230.255 189.15 229.026 190.487C227.346 192.429 226.275 193.637 225.995 193.933C227.739 191.671 229.363 189.34 230.901 186.944C239.924 172.817 245.456 156.661 247.053 139.779C248.649 122.897 246.264 105.763 240.091 89.76Z" fill="white"/>
</g>
<g style="mix-blend-mode:screen" opacity="0.4">
<path d="M68.0298 165.892C68.0166 165.836 68.0554 165.804 68.0391 165.784L68.0554 165.804L68.0298 165.892Z" fill="white"/>
</g>
<g style="mix-blend-mode:screen" opacity="0.4">
<path d="M77.6478 133.705C77.0877 134.699 76.5276 135.693 75.9871 136.671C73.5709 141.186 71.4709 145.871 69.7023 150.694C69.1506 152.218 68.6545 153.731 68.1913 155.284C68.1542 155.381 68.1271 155.482 68.1104 155.585C67.1082 158.767 66.2729 162.003 65.6076 165.282C64.9066 168.625 64.3745 172.006 64.0136 175.413C63.7932 177.104 63.6419 178.839 63.5657 180.547C63.4339 182.266 63.3938 183.978 63.3701 185.709C63.3464 187.441 63.3423 189.157 63.4135 190.845C63.4423 192.601 63.5464 194.33 63.6897 196.026C63.833 197.723 64.0288 199.444 64.2441 201.148C64.3487 202.037 64.4532 202.926 64.5969 203.782C65.1092 207.092 65.7492 210.398 66.5726 213.689C66.5695 213.725 66.5828 213.781 66.5796 213.817C65.7298 211.455 64.9357 209.08 64.2136 206.714C63.8852 205.471 63.4493 204.416 63.1859 203.052L62.7865 201.162L62.4529 199.352C62.1996 198.081 61.9831 197.015 61.7982 195.588L61.4092 191.909L61.3077 190.984L61.2323 189.971L61.0823 186.265L61.0676 185.807L61.0625 185.241L61.0528 184.308C61.0683 183.087 61.0479 181.861 61.083 180.623L61.375 176.86L61.4374 175.936L61.4974 175.249L61.5516 174.835L61.801 173.02C61.9607 171.815 62.1761 170.599 62.3915 169.382L62.9985 165.764L63.1494 164.869L63.2139 164.548L63.2594 164.443L63.2979 164.21L63.4274 163.769L63.9096 161.999L65.9956 154.993L65.9476 155.334C65.9934 155.043 66.067 154.758 66.1675 154.483L66.2711 154.13L66.5505 153.432L67.1092 152.036L67.668 150.64L67.9701 149.89L68.269 149.176C69.0882 147.3 70.0257 145.528 70.9827 143.74C71.9398 141.952 73.0182 140.233 74.0967 138.514C75.1885 136.852 76.4213 135.242 77.6478 133.705Z" fill="white"/>
</g>
<g style="mix-blend-mode:screen" opacity="0.4">
<path d="M141.822 67.7751L142.839 68.2219L142.659 68.2009C142.359 68.1093 142.075 67.9654 141.822 67.7751Z" fill="white"/>
</g>
<g style="mix-blend-mode:screen" opacity="0.4">
<path d="M155.037 70.9355L155.28 71.0732C155.195 71.0354 155.114 70.9893 155.037 70.9355Z" fill="white"/>
</g>
<g style="mix-blend-mode:screen" opacity="0.4">
<path d="M155.547 71.1577L156.857 71.1638C156.727 71.217 156.589 71.2504 156.448 71.2624C156.304 71.2941 156.156 71.3014 156.009 71.2844L155.937 71.2761L155.547 71.1577Z" fill="white"/>
</g>
<g style="mix-blend-mode:screen" opacity="0.4">
<path d="M175.016 77.9474C174.045 77.3964 173.037 76.8412 172.03 76.286C170.898 75.698 169.785 75.0941 168.63 74.5583C168.001 74.2661 167.407 73.9778 166.757 73.7016C166.183 73.3975 165.533 73.1214 164.92 72.8493C164.306 72.5772 163.641 72.2806 162.972 72.0203C162.027 71.5819 161.056 71.232 160.105 70.8659C158.802 70.3495 157.477 69.8852 156.172 69.405C156.097 69.4328 156.08 69.4126 156.011 69.3681C154.651 68.8996 153.27 68.4472 151.899 68.0872C150.535 67.6549 149.132 67.2545 147.722 66.9265C146.352 66.5665 144.946 66.2022 143.513 65.9263C143.415 65.9289 143.316 65.9048 143.228 65.8566C141.923 65.5773 140.635 65.3183 139.304 65.1273C137.888 64.8716 136.505 64.6562 135.064 64.4887C133.644 64.2692 132.239 64.1059 130.774 63.9906C129.457 63.8559 128.1 63.7532 126.721 63.7026L126.505 63.6775C125.797 63.6501 125.073 63.6025 124.382 63.5953C123.638 63.5637 122.911 63.5521 122.2 63.5608C120.802 63.5262 119.344 63.5397 117.919 63.5933C117.172 63.5979 116.425 63.6025 115.692 63.6633C114.958 63.7242 114.208 63.7649 113.478 63.7897C113.167 63.8083 112.872 63.8471 112.561 63.8658C111.241 63.9681 109.882 64.1025 108.54 64.257C106.978 64.4225 105.429 64.6444 103.877 64.9024C103.268 64.996 102.679 65.0736 102.083 65.2235C101.474 65.3172 100.918 65.4351 100.306 65.5649C99.7232 65.6529 99.1472 65.775 98.5806 65.9305C97.2647 66.1977 95.926 66.517 94.6038 66.8564C94.2143 66.939 93.8052 67.0376 93.4125 67.1563C92.4633 67.393 91.5439 67.7062 90.5916 67.979C90.4034 68.014 90.221 68.0724 90.0486 68.1531C89.3777 68.3308 88.723 68.5289 88.0654 68.7629C87.447 68.965 86.8287 69.1669 86.1876 69.4211C87.3712 68.7917 88.591 68.1665 89.8373 67.6539L90.4979 67.3838L90.4062 67.3915L91.767 66.8191L93.1802 66.2711L96.0137 65.3038L97.4011 64.8441L98.8411 64.4086C99.7573 64.1316 100.726 63.8791 101.714 63.6104L103.203 63.2356L104.798 62.9095L107.816 62.3288L108.186 62.2621L108.648 62.1878L109.404 62.075L110.916 61.8489L112.517 61.6514C112.979 61.5772 113.565 61.5357 114.079 61.4859L115.658 61.3405L117.177 61.2431L120.282 61.1289L121.815 61.0877L123.417 61.0913C124.419 61.0799 125.471 61.129 126.526 61.1419L126.598 61.1503L126.722 61.183L126.939 61.2081L126.814 61.1754L131.087 61.4523L135.229 61.9699L139.43 62.6405C140.863 62.9163 142.223 63.1839 143.616 63.4917L143.721 63.5404L144.633 63.9385C144.404 63.7771 144.15 63.6548 143.882 63.5774L143.99 63.5899L147.121 64.4283L147.902 64.665L148.774 64.8939L150.315 65.3834L151.872 65.893C152.387 66.0441 152.951 66.2556 153.427 66.4387L156.549 67.5864L156.654 67.6351C156.378 67.5533 156.09 67.5261 155.806 67.5548C155.619 67.6062 155.544 67.634 155.488 67.6457L156.654 67.6351L156.707 67.6595L156.798 67.6519L159.167 68.6755L160.338 69.2315C160.847 69.4549 161.162 69.6008 161.562 69.8116L163.885 70.9397L165.034 71.5477L166.231 72.2165L168.486 73.5008C168.85 73.7074 169.3 73.9786 169.645 74.2012L170.712 74.9096C171.434 75.3951 172.231 75.8529 172.895 76.3865L175.016 77.9474Z" fill="white"/>
</g>
</g>
</g>
<g clip-path="url(#clip0_2_317)">
<path d="M280.972 140.837L287.341 147.877C287.563 148.071 287.728 148.334 287.814 148.631C287.943 150.364 286.749 150.458 285.528 150.555C285 150.597 284.468 150.64 284.036 150.815C281.894 151.451 279.984 152.795 278.563 154.665C277.141 156.534 276.279 158.838 276.092 161.264C275.954 161.544 275.747 161.775 275.492 161.928C275.239 162.082 274.95 162.151 274.66 162.129C274.325 162.096 274.01 161.935 273.772 161.673L271.682 159.362C271.697 159.52 271.698 159.677 271.698 159.803V161.327C271.698 161.423 271.701 161.516 271.69 161.609C271.676 161.713 271.644 161.816 271.569 161.924V162.066C271.569 162.138 271.577 162.205 271.585 162.273C271.6 162.413 271.617 162.556 271.569 162.757C271.524 162.944 271.519 163.162 271.513 163.357C271.511 163.473 271.508 163.58 271.498 163.668C271.482 163.79 271.482 163.92 271.473 164.05C271.464 164.171 271.446 164.293 271.397 164.407C271.33 164.566 271.307 164.718 271.301 164.873C271.296 164.947 271.296 165.022 271.296 165.098L271.211 165.585L267.963 182.587L267.705 183.859L267.604 185.714L266.173 193.743L265.944 195H150.113L149.555 194.387L149.455 194.921H137.06L130.161 187.301L130.82 183.859H126.927L124.508 181.172C121.506 183.572 117.873 184.83 114.16 184.755C110.169 184.927 106.278 183.357 103.34 180.387L99.5754 176.223L98.7596 180.402C98.6595 181 98.5306 181.565 98.3875 182.115L98.2587 182.634L98.0441 183.388C98.0264 183.453 98.0024 183.517 97.9725 183.577C97.7594 184.269 97.5061 184.946 97.2139 185.604C97.2215 185.629 97.2215 185.657 97.2139 185.682C97.1764 185.769 97.1334 185.853 97.085 185.933C96.8689 186.403 96.6302 186.859 96.3694 187.301C96.3211 187.381 96.278 187.465 96.2407 187.552L96.0832 187.74C95.7334 188.291 95.3509 188.816 94.9382 189.312C94.8249 189.436 94.7117 189.553 94.5967 189.667C94.4792 189.785 94.3599 189.9 94.2368 190.019L93.922 190.349C93.7235 190.53 93.5205 190.705 93.3131 190.873C93.1421 191.012 92.9682 191.146 92.7913 191.276C89.8417 193.195 86.4392 194.108 83.0159 193.9C78.2928 193.9 74.5142 192.391 72.124 189.752L65.3971 182.319C62.7102 183.989 59.6678 184.846 56.5806 184.802C52.6017 184.937 48.7345 183.345 45.8176 180.371L42.0535 176.207L40.8369 182.634L40.5936 183.907H27.927L20.9998 176.239L21.3576 174.385L28.9718 134.238L29.2008 132.981H41.9103L42.2395 133.327V132.981H127.871L128.186 133.327V132.981H140.581L147.508 140.649L147.165 142.487L146.792 144.498H150.356L150.914 145.111C152.483 144.102 154.264 143.561 156.081 143.54C157.418 143.511 158.745 143.79 159.978 144.358C161.21 144.926 162.321 145.772 163.238 146.84L163.051 146.604L166.415 150.328C168.462 146.101 173.056 143.54 179.296 143.54C184.134 143.54 187.698 144.891 189.858 147.342L192.292 150.03L193.108 145.708L193.351 144.451H205.759L209.31 148.364L209.81 145.724L210.054 144.467H234.472L235.129 145.19C236.783 144.119 238.676 143.574 240.597 143.619C241.752 143.569 242.903 143.801 243.968 144.298C245.031 144.796 245.982 145.546 246.751 146.494C246.711 146.445 246.673 146.395 246.635 146.347C246.566 146.257 246.497 146.169 246.424 146.087L247.668 147.453C248.751 146.221 250.054 145.246 251.492 144.586C252.933 143.927 254.48 143.598 256.039 143.619C256.868 143.563 257.694 143.64 258.497 143.846L257.142 142.346C256.958 142.129 256.832 141.859 256.782 141.568C256.732 141.276 256.758 140.975 256.855 140.699C256.955 140.423 257.122 140.183 257.341 140.007C257.559 139.832 257.817 139.727 258.087 139.706H259.174C259.467 139.675 259.759 139.628 260.047 139.565C261.568 139.214 262.999 138.496 264.237 137.463C265.476 136.431 266.489 135.109 267.204 133.594C267.267 133.477 267.323 133.356 267.375 133.232V133.154C267.868 131.99 268.167 130.74 268.263 129.461C268.288 129.064 268.451 128.692 268.716 128.421C268.982 128.149 269.331 127.999 269.694 128H269.809C270.025 128.023 270.236 128.099 270.422 128.225C270.608 128.35 270.765 128.52 270.883 128.723C271.913 129.823 277.637 136.218 277.637 136.218C278.115 136.781 278.08 137.512 278.043 138.252C278.02 138.709 277.997 139.17 278.095 139.596C278.356 139.647 278.62 139.686 278.882 139.713C279.135 139.738 279.389 139.751 279.642 139.753C279.938 139.76 280.226 139.868 280.464 140.062C280.702 140.256 280.881 140.527 280.972 140.837Z" fill="black"/>
<path d="M86.508 146.007H95.5535L90.4869 172.389C89.5567 177.386 87.7818 180.246 85.091 182.272C82.3695 184.006 79.2444 184.826 76.1029 184.629C70.1203 184.629 64.3809 181.88 63.8084 175.202H72.9111C73.1973 176.773 74.5142 177.669 76.5179 177.669C79.223 177.669 80.4681 175.877 81.0264 173.065L81.5702 170.158H81.3698C80.5711 171.122 79.6023 171.897 78.5222 172.437C77.442 172.978 76.2733 173.271 75.0866 173.3C69.8197 173.3 65.6403 168.696 65.7262 161.956C65.8408 154.099 70.5066 145.174 78.3356 145.174C79.8192 145.064 81.3004 145.423 82.6041 146.209C83.9079 146.994 84.9794 148.172 85.6922 149.605H85.8496L86.508 146.007ZM78.7363 165.931C82.2143 165.931 84.1465 161.531 84.2037 157.745C84.2037 155.215 83.302 152.622 80.6399 152.622C77.0045 152.622 75.1582 157.069 75.101 160.887C75.101 163.464 76.0027 165.931 78.6647 165.931M180.284 166.78C180.284 168.461 178.966 169.136 177.234 169.136C174.372 169.136 173.414 167.565 173.399 165.365H164.397C164.239 173.567 170.909 175.594 176.835 175.594C184.405 175.594 189.315 171.996 189.416 164.815C189.416 159.08 184.964 157.336 180.585 156.22C177.221 155.372 175.747 154.759 175.761 153.361C175.776 151.962 177.279 151.396 178.753 151.396C180.599 151.396 181.857 152.119 181.987 153.973H190.732C190.632 147.123 185.006 145.111 179.282 145.111C172.326 145.111 166.901 148.584 166.815 155.152C166.815 160.321 169.993 162.223 174.787 163.574C177.865 164.47 180.312 164.752 180.284 166.78ZM247.166 150.265H247.008C246.619 148.718 245.759 147.363 244.572 146.426C243.385 145.488 241.941 145.025 240.481 145.111C236.589 145.111 234.214 147.233 231.966 150.438H231.809L232.639 146.007H223.535L218.082 174.636H227.601L230.464 159.19C231.121 155.828 232.682 153.471 235.044 153.471C237.406 153.471 237.72 155.545 237.233 158.075L234.084 174.636H243.601L246.465 159.19C247.123 155.608 248.684 153.471 251.044 153.471C253.406 153.471 253.722 155.435 253.235 158.075L250.086 174.636H259.603L263.01 157.619C264.441 150.438 262.252 145.048 255.969 145.048C254.22 145.041 252.499 145.514 250.962 146.425C249.424 147.337 248.119 148.657 247.166 150.265ZM22.7458 174.636H32.5785L40.1784 134.489H30.3601L22.7458 174.636ZM52.344 145.158C58.985 145.158 65.3256 149.149 65.2253 158.184C65.1394 168.068 59.0137 175.469 49.6533 175.469C43.2126 175.469 36.7721 171.541 36.8866 162.553C37.044 152.905 43.0839 145.158 52.344 145.158ZM49.9253 168.461C54.1189 168.461 55.6503 161.783 55.6503 157.854C55.6503 155.042 54.8631 152.292 52.1007 152.292C47.9501 152.292 46.5332 159.363 46.5332 163.008C46.5332 165.931 47.2774 168.461 49.9825 168.461M43.456 134.489L42.0247 142.519H124.594L126.025 134.489H43.456ZM109.866 145.158C116.507 145.158 122.847 149.149 122.747 158.184C122.661 168.068 116.521 175.469 107.161 175.469C100.72 175.469 94.2797 171.541 94.4086 162.553C94.6089 152.905 100.649 145.158 109.866 145.158ZM107.49 168.461C111.684 168.461 113.215 161.783 113.215 157.854C113.215 155.042 112.414 152.292 109.651 152.292C105.515 152.292 104.084 159.363 104.084 163.008C104.084 165.931 104.828 168.461 107.547 168.461M129.403 134.489L127.971 142.519H137.475L138.906 134.489H129.403ZM121.788 174.636H131.306L136.759 146.007H127.184L121.788 174.636ZM152.159 175.594C150.645 175.712 149.13 175.365 147.785 174.591C146.44 173.816 145.318 172.646 144.545 171.211H144.388L141.525 185.698H131.893L139.622 146.007H148.667L147.952 149.825C148.896 148.415 150.12 147.258 151.53 146.441C152.941 145.625 154.502 145.17 156.095 145.111C161.82 145.111 165.184 150.501 165.084 157.509C164.955 166.324 160.79 175.594 152.102 175.594H152.159ZM151.787 153.219C148.109 153.219 145.848 158.389 145.791 162.364C145.791 165.13 146.678 168.209 149.698 168.209C153.634 168.209 155.251 162.49 155.294 158.672C155.294 156.079 154.607 153.219 151.787 153.219ZM206.82 170.126H206.977L206.147 174.667H215.191L220.646 146.038H211.142L208.107 162.034C207.492 165.35 205.631 167.094 203.284 167.094C200.936 167.094 200.421 164.674 200.894 162.144L203.971 146.038H194.467L191.103 163.715C189.672 171.415 192.936 175.563 198.404 175.563C200.12 175.545 201.803 175.03 203.28 174.069C204.757 173.109 205.979 171.738 206.82 170.095V170.126ZM257.871 185.839L259.303 177.81H146.435L145.003 185.839H257.871Z" fill="white"/>
<path d="M268.104 153.863C268.011 153.856 267.92 153.827 267.836 153.78C267.75 153.733 267.676 153.668 267.615 153.59C267.554 153.511 267.508 153.419 267.479 153.321C267.45 153.222 267.439 153.118 267.447 153.015C267.566 151.616 267.415 150.204 267.003 148.874C266.591 147.543 265.927 146.323 265.055 145.293C264.183 144.264 263.123 143.448 261.945 142.899C260.766 142.351 259.495 142.082 258.215 142.11C258.026 142.11 257.844 142.027 257.71 141.88C257.575 141.733 257.499 141.533 257.499 141.325C257.499 141.116 257.575 140.916 257.71 140.769C257.844 140.622 258.026 140.539 258.215 140.539C258.558 140.563 258.903 140.563 259.246 140.539C261.788 140.242 264.156 138.981 265.943 136.973C267.731 134.966 268.823 132.337 269.035 129.54C269.05 129.343 269.131 129.158 269.264 129.024C269.397 128.89 269.571 128.816 269.751 128.817C269.845 128.825 269.937 128.853 270.021 128.9C270.105 128.947 270.179 129.012 270.24 129.091C270.303 129.17 270.349 129.261 270.378 129.36C270.407 129.458 270.417 129.562 270.41 129.666C270.291 131.064 270.442 132.474 270.852 133.803C271.264 135.133 271.926 136.352 272.796 137.381C273.667 138.41 274.725 139.227 275.901 139.776C277.079 140.326 278.348 140.596 279.627 140.57C279.816 140.57 279.999 140.653 280.133 140.8C280.267 140.948 280.342 141.148 280.342 141.356C280.342 141.564 280.267 141.764 280.133 141.911C279.999 142.059 279.816 142.142 279.627 142.142C276.908 142.191 274.3 143.341 272.306 145.371C270.312 147.401 269.07 150.168 268.822 153.141C268.806 153.338 268.725 153.522 268.593 153.656C268.46 153.79 268.286 153.864 268.104 153.863Z" fill="white"/>
</g>
<defs>
<filter id="filter0_d_2_317" x="20.7451" y="24.6195" width="268.538" height="269.623" filterUnits="userSpaceOnUse" color-interpolation-filters="sRGB">
<feFlood flood-opacity="0" result="BackgroundImageFix"/>
<feColorMatrix in="SourceAlpha" type="matrix" values="0 0 0 0 0 0 0 0 0 0 0 0 0 0 0 0 0 0 127 0" result="hardAlpha"/>
<feOffset dy="4"/>
<feGaussianBlur stdDeviation="2"/>
<feComposite in2="hardAlpha" operator="out"/>
<feColorMatrix type="matrix" values="0 0 0 0 0 0 0 0 0 0 0 0 0 0 0 0 0 0 0.25 0"/>
<feBlend mode="normal" in2="BackgroundImageFix" result="effect1_dropShadow_2_317"/>
<feBlend mode="normal" in="SourceGraphic" in2="effect1_dropShadow_2_317" result="shape"/>
</filter>
<filter id="filter1_f_2_317" x="59.3565" y="119.234" width="158.778" height="171.009" filterUnits="userSpaceOnUse" color-interpolation-filters="sRGB">
<feFlood flood-opacity="0" result="BackgroundImageFix"/>
<feBlend mode="normal" in="SourceGraphic" in2="BackgroundImageFix" result="shape"/>
<feGaussianBlur stdDeviation="2" result="effect1_foregroundBlur_2_317"/>
</filter>
<linearGradient id="paint0_linear_2_317" x1="243.194" y1="180.846" x2="138.461" y2="52.4065" gradientUnits="userSpaceOnUse">
<stop offset="0.0416667" stop-color="#FCC400"/>
<stop offset="0.151042" stop-color="#EFBD15"/>
<stop offset="0.854167" stop-color="#646CFF"/>
</linearGradient>
<linearGradient id="paint1_linear_2_317" x1="138.592" y1="240.136" x2="269.578" y2="133.327" gradientUnits="userSpaceOnUse">
<stop stop-color="#646CFF"/>
<stop offset="0.864583" stop-color="#E3446C" stop-opacity="0.74"/>
</linearGradient>
<linearGradient id="paint2_linear_2_317" x1="70.867" y1="150.143" x2="176.296" y2="279.436" gradientUnits="userSpaceOnUse">
<stop offset="0.125" stop-color="#FCC400" stop-opacity="0.87"/>
<stop offset="0.765625" stop-color="#646CFF"/>
</linearGradient>
<linearGradient id="paint3_linear_2_317" x1="169.558" y1="69.6218" x2="41.4078" y2="174.119" gradientUnits="userSpaceOnUse">
<stop offset="0.21875" stop-color="#646CFF"/>
<stop offset="1" stop-color="#E3446C" stop-opacity="0.64"/>
</linearGradient>
<clipPath id="clip0_2_317">
<rect width="267" height="67" fill="white" transform="translate(20.9998 128)"/>
</clipPath>
</defs>
</svg>
